<svg xmlns="http://www.w3.org/2000/svg" width="25.575" height="25.505" viewBox="0 0 25.575 25.505" class="social-icon"><g id="Group_1" data-name="Group 1" transform="translate(-1479.915 -6819.412)"><path id="Path_23" data-name="Path 23" d="M3678.076,3390a3.083,3.083,0,0,1,3.076,3.076,3.076,3.076,0,1,1-3.076-3.076Z" transform="translate(-2195.085 3429.412)" class="social-icon" fill-rule="evenodd"></path><path id="Path_24" data-name="Path 24" d="M3691.458,3652.038h-3.594a.849.849,0,0,1-.864-.83v-15.345a.855.855,0,0,1,.864-.864h3.594a.848.848,0,0,1,.829.864v15.345A.841.841,0,0,1,3691.458,3652.038Z" transform="translate(-2206.67 3192.879)" class="social-icon" fill-rule="evenodd"></path><path id="Path_25" data-name="Path 25" d="M3953.52,3628.806a5.8,5.8,0,0,0-5.841-5.806h-.9a5.143,5.143,0,0,0-4.251,2.212,1.936,1.936,0,0,0-.276.449h-.069v-1.9a.346.346,0,0,0-.346-.346h-4.493a.372.372,0,0,0-.346.346v16.347a.372.372,0,0,0,.346.345h4.6a.346.346,0,0,0,.345-.345v-9.435a2.981,2.981,0,0,1,5.081-2.143,3.069,3.069,0,0,1,.864,2.108v9.47a.347.347,0,0,0,.346.345h4.6a.346.346,0,0,0,.346-.345v-11.3Z" transform="translate(-2448.03 3204.465)" class="social-icon" fill-rule="evenodd"></path></g></svg>