<svg xmlns="http://www.w3.org/2000/svg" width="34.353" height="24.054" viewBox="0 0 34.353 24.054" class="social-icon"><path id="Path_31" data-name="Path 31" d="M522.627,3468.767a4.294,4.294,0,0,0-3.041-3.042c-2.661-.726-13.409-.726-13.409-.726s-10.748,0-13.444.726a4.354,4.354,0,0,0-3.041,3.042,49.7,49.7,0,0,0,0,16.52,4.355,4.355,0,0,0,3.041,3.042c2.7.726,13.444.726,13.444.726s10.748,0,13.409-.691a4.3,4.3,0,0,0,3.041-3.042,47.561,47.561,0,0,0,0-16.554Zm-19.872,13.409,8.916-5.149-8.916-5.149Z" transform="translate(-489 -3465)" class="social-icon" fill-rule="evenodd"></path></svg>